<mxfile host="app.diagrams.net" modified="2024-07-04T13:43:55.302Z" agent="Mozilla/5.0 (Windows NT 10.0; Win64; x64) AppleWebKit/537.36 (KHTML, like Gecko) Chrome/126.0.0.0 Safari/537.36 Edg/126.0.0.0" etag="gJlAwR6fDTy3kCXDb1Fw" version="24.6.4" type="github">
  <diagram name="第 1 页" id="BYtJJB007P0EVwpqyWPn">
    <mxGraphModel dx="1006" dy="713" grid="1" gridSize="10" guides="1" tooltips="1" connect="1" arrows="1" fold="1" page="0" pageScale="1" pageWidth="827" pageHeight="1169" math="0" shadow="0">
      <root>
        <mxCell id="0" />
        <mxCell id="1" parent="0" />
        <mxCell id="eBeP2DkCENomCimRLcog-1" value="&lt;p style=&quot;margin-top: 0pt; margin-bottom: 0pt; margin-left: 0in; direction: ltr; unicode-bidi: embed;&quot;&gt;基于电子病历数据挖掘肝硬化继发AKI的危险因素&lt;/p&gt;" style="rounded=0;whiteSpace=wrap;html=1;fontFamily=Times New Roman;fontSize=17;" vertex="1" parent="1">
          <mxGeometry x="160" y="40" width="640" height="40" as="geometry" />
        </mxCell>
        <mxCell id="eBeP2DkCENomCimRLcog-2" value="&lt;span style=&quot;background-color: initial;&quot;&gt;收集患者的&lt;/span&gt;&lt;span style=&quot;background-color: initial;&quot;&gt;危险因素&lt;/span&gt;" style="rounded=0;whiteSpace=wrap;html=1;fontSize=17;" vertex="1" parent="1">
          <mxGeometry x="350" y="210" width="160" height="50" as="geometry" />
        </mxCell>
        <mxCell id="eBeP2DkCENomCimRLcog-15" value="&lt;span style=&quot;font-size: 16px; text-wrap: nowrap; background-color: initial;&quot;&gt;文献检索&lt;/span&gt;" style="rounded=0;whiteSpace=wrap;html=1;" vertex="1" parent="1">
          <mxGeometry x="160" y="120" width="80" height="30" as="geometry" />
        </mxCell>
        <mxCell id="eBeP2DkCENomCimRLcog-17" value="&lt;font style=&quot;font-size: 16px;&quot;&gt;确定危险因素框架&lt;/font&gt;" style="rounded=0;whiteSpace=wrap;html=1;fontSize=17;" vertex="1" parent="1">
          <mxGeometry x="160" y="210" width="150" height="50" as="geometry" />
        </mxCell>
        <mxCell id="eBeP2DkCENomCimRLcog-18" value="&lt;span style=&quot;font-size: 16px; text-wrap: nowrap; background-color: initial;&quot;&gt;专家咨询&lt;/span&gt;" style="rounded=0;whiteSpace=wrap;html=1;" vertex="1" parent="1">
          <mxGeometry x="160" y="160" width="80" height="30" as="geometry" />
        </mxCell>
        <mxCell id="eBeP2DkCENomCimRLcog-19" value="分析危险因素变化轨迹与AKI发生之间的关联性" style="rounded=0;whiteSpace=wrap;html=1;fontSize=17;" vertex="1" parent="1">
          <mxGeometry x="550" y="210" width="250" height="50" as="geometry" />
        </mxCell>
        <mxCell id="eBeP2DkCENomCimRLcog-21" value="&lt;span style=&quot;font-size: 16px; text-wrap: nowrap; background-color: initial;&quot;&gt;电子病历系统&lt;/span&gt;" style="rounded=0;whiteSpace=wrap;html=1;" vertex="1" parent="1">
          <mxGeometry x="390" y="140" width="100" height="30" as="geometry" />
        </mxCell>
        <mxCell id="eBeP2DkCENomCimRLcog-23" value="&lt;span style=&quot;color: rgb(35, 35, 35); font-family: &amp;quot;Helvetica Neue&amp;quot;, Helvetica, &amp;quot;PingFang SC&amp;quot;, &amp;quot;Hiragino Sans GB&amp;quot;, &amp;quot;Microsoft YaHei&amp;quot;, Arial, sans-serif, iconfont; font-size: 16px; text-align: justify;&quot;&gt;轨迹模型？&lt;/span&gt;" style="rounded=0;whiteSpace=wrap;html=1;" vertex="1" parent="1">
          <mxGeometry x="610" y="130" width="100" height="30" as="geometry" />
        </mxCell>
        <mxCell id="eBeP2DkCENomCimRLcog-24" value="&lt;span style=&quot;color: rgb(35, 35, 35); font-family: &amp;quot;Helvetica Neue&amp;quot;, Helvetica, &amp;quot;PingFang SC&amp;quot;, &amp;quot;Hiragino Sans GB&amp;quot;, &amp;quot;Microsoft YaHei&amp;quot;, Arial, sans-serif, iconfont; font-size: 16px; text-align: justify;&quot;&gt;轨迹模型？&lt;/span&gt;" style="rounded=0;whiteSpace=wrap;html=1;" vertex="1" parent="1">
          <mxGeometry x="610" y="170" width="100" height="30" as="geometry" />
        </mxCell>
      </root>
    </mxGraphModel>
  </diagram>
</mxfile>
